<?xml version="1.0" encoding="UTF-8"?>
<svg id="Layer_2" data-name="Layer 2" xmlns="http://www.w3.org/2000/svg" viewBox="0 0 900 900">
  <defs>
    <style>
      .cls-1 {
        fill: #219fbd;
      }

      .cls-1, .cls-2, .cls-3, .cls-4 {
        stroke-width: 0px;
      }

      .cls-2 {
        fill: #fb8501;
      }

      .cls-3 {
        fill: #0f253f;
      }

      .cls-4 {
        fill: #8ecbe6;
      }
    </style>
  </defs>
  <g id="_Слой_1" data-name="Слой 1">
    <g>
      <path class="cls-2" d="m90.75,477.35c21.58,0,42.75-8.76,58.06-24.06l68.77-68.77c61.87-61.84,162.45-61.84,224.32,0l70.58,70.58c15.5,15.52,36.11,24.05,58.06,24.05h329.46V0H342.52C153.35,0,0,153.35,0,342.52v134.83h90.75Z"/>
      <path class="cls-1" d="m900,658.15v103.17h-83.05c-21.92,0-42.53-8.54-58.06-24.05l-70.58-70.58c-3.68-3.68-7.51-7.1-11.45-10.34,5.92.91,11.87,1.79,17.89,1.79h205.24Zm-360.69-105.74c-47.05-47.01-123.58-47.08-170.68,0l-68.8,68.79c-22.68,22.67-52.81,35.16-84.86,35.16H0v103.17h337.16c21.95,0,42.55-8.53,58.06-24.05l68.8-68.79c40.03-40.03,96.27-53.97,147.76-42.18-.58-.56-1.29-.95-1.86-1.52l-70.61-70.58Z"/>
      <path class="cls-3" d="m900,517.06v103.17h-205.24c-21.61,0-42.75-8.76-58.03-24.05l-70.61-70.58c-3.58-3.58-7.32-6.9-11.14-10.06,5.15.67,10.28,1.52,15.56,1.52h329.46Zm-484.91-105.74c-47.07-47.07-123.63-47.07-170.7,0l-68.77,68.79c-22.71,22.67-52.83,35.16-84.86,35.16H0v103.17h214.97c21.92,0,42.55-8.53,58.06-24.05l68.8-68.79c39.28-39.27,94.16-53.49,144.83-42.9-.31-.3-.68-.5-.98-.81l-70.58-70.58Z"/>
      <path class="cls-4" d="m816.95,799.23c-32.03,0-62.18-12.49-84.86-35.16l-70.58-70.58c-47.05-47.05-123.58-47.07-170.68,0l-68.8,68.79c-22.66,22.67-52.78,35.16-84.86,35.16H0v102.56h900v-100.77h-83.05Z"/>
    </g>
  </g>
</svg>