<?xml version="1.0" encoding="UTF-8"?>
<svg id="Layer_2" data-name="Layer 2" xmlns="http://www.w3.org/2000/svg" viewBox="0 0 2164.51 554.2">
  <defs>
    <style>
      .cls-1 {
        fill: #219fbd;
      }

      .cls-1, .cls-2, .cls-3, .cls-4 {
        stroke-width: 0px;
      }

      .cls-2 {
        fill: #fb8501;
      }

      .cls-3 {
        fill: #0f253f;
      }

      .cls-4 {
        fill: #8ecbe6;
      }
    </style>
  </defs>
  <g id="_Слой_1" data-name="Слой 1">
    <g>
      <g>
        <path class="cls-2" d="m55.88,293.94c13.29,0,26.32-5.4,35.75-14.82l42.35-42.35c38.1-38.08,100.03-38.08,138.13,0l43.46,43.46c9.55,9.55,22.23,14.81,35.75,14.81h202.88V0H210.92C94.43,0,0,94.43,0,210.92v83.03h55.88Z"/>
        <path class="cls-1" d="m554.2,405.27v63.53h-51.14c-13.5,0-26.19-5.26-35.75-14.81l-43.46-43.46c-2.26-2.26-4.63-4.37-7.05-6.37,3.65.56,7.31,1.1,11.02,1.1h126.38Zm-222.1-65.11c-28.97-28.95-76.1-28.99-105.1,0l-42.36,42.36c-13.97,13.96-32.52,21.65-52.26,21.65H0v63.53h207.62c13.52,0,26.2-5.25,35.75-14.81l42.36-42.36c24.65-24.65,59.28-33.23,90.99-25.97-.36-.34-.8-.59-1.15-.94l-43.48-43.46Z"/>
        <path class="cls-3" d="m554.2,318.39v63.53h-126.38c-13.3,0-26.32-5.4-35.74-14.81l-43.48-43.46c-2.2-2.2-4.51-4.25-6.86-6.2,3.17.41,6.33.94,9.58.94h202.88Zm-298.6-65.11c-28.98-28.98-76.13-28.98-105.12,0l-42.35,42.36c-13.98,13.96-32.53,21.65-52.26,21.65H0v63.53h132.38c13.5,0,26.2-5.25,35.75-14.81l42.36-42.36c24.19-24.18,57.98-32.94,89.18-26.41-.19-.19-.42-.31-.61-.5l-43.46-43.46Z"/>
        <path class="cls-4" d="m503.06,492.15c-19.72,0-38.29-7.69-52.26-21.65l-43.46-43.46c-28.97-28.97-76.1-28.98-105.1,0l-42.36,42.36c-13.95,13.96-32.5,21.65-52.26,21.65H0v63.15h554.2v-62.05h-51.14Z"/>
      </g>
      <rect class="cls-3" x="1584.84" y="0" width="138.55" height="554.2"/>
      <path class="cls-3" d="m1091.58,346.38v207.83h138.55v-207.83c0-38.26,31.02-69.28,69.28-69.28v-138.55c-114.78,0-207.83,93.05-207.83,207.83Z"/>
      <path class="cls-3" d="m855.6,138.55h-43.05v138.55h43.05c38.26,0,69.28,31.02,69.28,69.28s-31.02,69.28-69.28,69.28-69.28-31.02-69.28-69.28V0h-138.55v346.38c0,114.78,93.05,207.83,207.83,207.83s207.83-93.05,207.83-207.83-93.05-207.83-207.83-207.83Z"/>
      <path class="cls-3" d="m1956.68,138.55h43.05v138.55h-43.05c-38.26,0-69.28,31.02-69.28,69.28,0,38.26,31.02,69.28,69.28,69.28,38.26,0,69.28-31.02,69.28-69.28V0h138.55v346.38c0,114.78-93.05,207.83-207.83,207.83s-207.83-93.05-207.83-207.83c0-114.78,93.05-207.83,207.83-207.83Z"/>
      <rect class="cls-3" x="1299.41" y="138.55" width="33.16" height="138.55"/>
      <path class="cls-3" d="m1321.8,346.38v207.83h138.55v-207.83c0-38.26,31.02-69.28,69.28-69.28v-138.55c-114.78,0-207.83,93.05-207.83,207.83Z"/>
      <rect class="cls-3" x="1529.63" y="138.55" width="33.16" height="138.55"/>
    </g>
  </g>
</svg>